<svg width="44" height="44" viewBox="0 0 44 44" fill="none" xmlns="http://www.w3.org/2000/svg">
<rect width="44" height="44" rx="22" fill="#2D3A5B" fill-opacity="0.51"/>
<path d="M10 21.9999C10 26.9135 12.9548 31.1348 17.183 32.9907C17.1493 32.1528 17.177 31.1469 17.3919 30.2352C17.6226 29.2611 18.9359 23.6965 18.9359 23.6965C18.9359 23.6965 18.5526 22.9303 18.5526 21.7979C18.5526 20.0196 19.5833 18.6915 20.8669 18.6915C21.9584 18.6915 22.4858 19.5113 22.4858 20.4931C22.4858 21.5903 21.7859 23.2315 21.426 24.7516C21.1254 26.0245 22.0643 27.0628 23.32 27.0628C25.5937 27.0628 27.125 24.1426 27.125 20.6828C27.125 18.0528 25.3536 16.0843 22.1317 16.0843C18.4916 16.0843 16.2239 18.7989 16.2239 21.831C16.2239 22.8765 16.5321 23.6137 17.0149 24.1846C17.2369 24.4469 17.2678 24.5523 17.1874 24.8534C17.1298 25.0742 16.9977 25.6058 16.9429 25.8164C16.863 26.1203 16.6168 26.229 16.3421 26.1168C14.6655 25.4323 13.8846 23.5963 13.8846 21.5323C13.8846 18.1236 16.7595 14.0362 22.461 14.0362C27.0426 14.0362 30.058 17.3515 30.058 20.9102C30.058 25.6176 27.4409 29.1343 23.5831 29.1343C22.2876 29.1343 21.0689 28.434 20.6515 27.6386C20.6515 27.6386 19.9548 30.4034 19.8072 30.9373C19.5528 31.8625 19.0548 32.7872 18.5995 33.5079C19.7036 33.8344 20.849 34.0001 22.0004 34C28.627 34 34 28.6274 34 21.9999C34 15.3726 28.627 10 22.0004 10C15.3732 10 10 15.3726 10 21.9999Z" fill="#CB1F27"/>
</svg>
