<svg width="44" height="44" viewBox="0 0 44 44" fill="none" xmlns="http://www.w3.org/2000/svg">
<rect width="44" height="44" rx="22" fill="#2D3A5B" fill-opacity="0.51"/>
<path d="M22 10C15.3726 10 10 15.3727 10 22C10 28.6278 15.3727 34 22 34C28.6278 34 34 28.6278 34 22C34 15.3732 28.6278 10.0007 21.9998 10.0007L21.9999 10.0001L22 10ZM27.503 27.3076C27.2881 27.6601 26.8266 27.7718 26.4741 27.5554C23.6567 25.8345 20.1099 25.4447 15.9329 26.399C15.7394 26.443 15.5365 26.4085 15.3685 26.3028C15.2006 26.1972 15.0815 26.0293 15.0374 25.8359C15.0154 25.7401 15.0125 25.641 15.0289 25.5441C15.0453 25.4473 15.0806 25.3546 15.1329 25.2714C15.1851 25.1882 15.2532 25.1161 15.3334 25.0593C15.4135 25.0025 15.5041 24.9621 15.5999 24.9403C20.1711 23.8959 24.092 24.3455 27.2552 26.2787C27.6077 26.495 27.7194 26.9551 27.503 27.3076ZM28.9718 24.0401C28.7009 24.4803 28.1249 24.6193 27.685 24.3484C24.4594 22.3658 19.5425 21.7916 15.7274 22.9497C15.2326 23.0991 14.71 22.8203 14.5598 22.3263C14.4107 21.8315 14.6897 21.3099 15.1837 21.1595C19.5417 19.8371 24.9595 20.4777 28.6637 22.7539C29.1036 23.0249 29.2427 23.6008 28.9718 24.0401ZM29.0979 20.6376C25.2303 18.3404 18.8494 18.1291 15.1569 19.2499C14.5639 19.4298 13.9368 19.095 13.7572 18.502C13.5775 17.9088 13.9119 17.2821 14.5053 17.1018C18.7441 15.815 25.7907 16.0638 30.2433 18.7071C30.7779 19.0236 30.9527 19.7125 30.636 20.2451C30.3208 20.7785 29.63 20.9543 29.0985 20.6376H29.0979Z" fill="#1ED760"/>
</svg>
