<svg width="38" height="38" viewBox="0 0 38 38" fill="none" xmlns="http://www.w3.org/2000/svg">
<rect width="38" height="38" rx="12" fill="#000511"/>
<path d="M23.6 12.82C22.9164 12.0396 22.5397 11.0374 22.54 10H19.45V22.4C19.4261 23.071 19.1428 23.7066 18.6597 24.1729C18.1766 24.6393 17.5314 24.8999 16.86 24.9C15.44 24.9 14.26 23.74 14.26 22.3C14.26 20.58 15.92 19.29 17.63 19.82V16.66C14.18 16.2 11.16 18.88 11.16 22.3C11.16 25.63 13.92 28 16.85 28C19.99 28 22.54 25.45 22.54 22.3V16.01C23.793 16.9099 25.2973 17.3926 26.84 17.39V14.3C26.84 14.3 24.96 14.39 23.6 12.82Z" fill="white"/>
</svg>
