<svg width="38" height="38" viewBox="0 0 38 38" fill="none" xmlns="http://www.w3.org/2000/svg">
<rect width="38" height="38" rx="12" fill="#1B5BFF"/>
<path d="M29.46 12.5C28.69 12.85 27.86 13.08 27 13.19C27.88 12.66 28.56 11.82 28.88 10.81C28.05 11.31 27.13 11.66 26.16 11.86C25.37 11 24.26 10.5 23 10.5C20.65 10.5 18.73 12.42 18.73 14.79C18.73 15.13 18.77 15.46 18.84 15.77C15.28 15.59 12.11 13.88 9.99998 11.29C9.62998 11.92 9.41998 12.66 9.41998 13.44C9.41998 14.93 10.17 16.25 11.33 17C10.62 17 9.95998 16.8 9.37998 16.5V16.53C9.37998 18.61 10.86 20.35 12.82 20.74C12.1907 20.9122 11.5301 20.9362 10.89 20.81C11.1616 21.6625 11.6935 22.4084 12.411 22.9429C13.1285 23.4775 13.9954 23.7737 14.89 23.79C13.3736 24.9904 11.494 25.6393 9.55998 25.63C9.21998 25.63 8.87998 25.61 8.53998 25.57C10.44 26.79 12.7 27.5 15.12 27.5C23 27.5 27.33 20.96 27.33 15.29C27.33 15.1 27.33 14.92 27.32 14.73C28.16 14.13 28.88 13.37 29.46 12.5Z" fill="white"/>
</svg>
